<?xml version="1.0" encoding="utf-8"?>
<!-- Generator: Adobe Illustrator 25.2.3, SVG Export Plug-In . SVG Version: 6.00 Build 0)  -->
<svg version="1.1" id="Layer_1" xmlns="http://www.w3.org/2000/svg" xmlns:xlink="http://www.w3.org/1999/xlink" x="0px" y="0px"
	 viewBox="0 0 102.7 32" style="enable-background:new 0 0 102.7 32;" xml:space="preserve">
<style type="text/css">
	.st0{fill:#AAAAAA;}
	.st1{fill:url(#SVGID_1_);}
</style>
<g>
	<path class="st0" d="M61.5,20.7h1.8c0.3,0,0.6,0.2,0.6,0.5c0.2,0.6,0.8,0.9,1.6,0.9c0.9,0,1.6-0.5,1.6-1.1s-0.4-0.8-1.2-0.9
		l-1.5-0.4c-3-0.8-3.4-2.4-3.4-3.7c0-1.8,1.9-3.4,4.4-3.4c1.9,0,4.1,0.8,4.4,3c0.1,0.4-0.2,0.8-0.7,0.8h-1.9c-0.3,0-0.6-0.2-0.6-0.5
		c-0.2-0.6-0.8-0.8-1.3-0.8c-0.8,0-1.3,0.5-1.3,1c0,0.6,0.6,0.8,1.1,0.9l1.9,0.6c2.7,0.8,3.1,2.4,3.1,3.4c0,2.3-2.4,3.7-4.8,3.7
		c-2.2,0-4.2-1.1-4.7-3.1C60.8,21,61.1,20.7,61.5,20.7z"/>
</g>
<path class="st0" d="M42.5,23.6V7.2c0-0.4,0.3-0.7,0.7-0.7h2c0.4,0,0.7,0.3,0.7,0.7v16.3c0,0.4-0.3,0.7-0.7,0.7h-2
	C42.7,24.3,42.5,24,42.5,23.6z"/>
<path class="st0" d="M49.4,9.9c0-0.9,0.8-1.6,1.8-1.6s1.7,0.8,1.7,1.6c0,0.9-0.8,1.6-1.7,1.6C50.1,11.5,49.4,10.8,49.4,9.9z
	 M54.4,9.9c0-0.9,0.8-1.6,1.8-1.6c0.9,0,1.7,0.8,1.7,1.6c0,0.9-0.8,1.6-1.7,1.6C55.2,11.6,54.4,10.8,54.4,9.9z"/>
<path class="st0" d="M82.9,18.1l-7.7,2.1c0.7,1.2,2,1.7,3.4,1.3c0.9-0.2,1.7-0.8,2.3-1.6c0.2-0.3,0.6-0.4,0.8-0.2l1.2,0.8
	c0.3,0.2,0.5,0.6,0.2,0.8c-0.8,1.4-2.3,2.5-4,3c-3.4,0.8-6.6-0.8-7.4-4.2c-0.9-3.6,1.2-6.6,4.3-7.4c3.2-0.8,6.4,0.8,7.3,4.1
	c0.1,0.2,0.1,0.4,0.2,0.6C83.3,17.8,83.2,18,82.9,18.1z M79.8,16.8c-0.5-1.2-1.7-1.8-3.1-1.4c-1.2,0.4-2.3,1.2-2.2,2.8L79.8,16.8z"
	/>
<path class="st0" d="M96.3,18v5.6c0,0.4-0.3,0.7-0.7,0.7h-2c-0.4,0-0.7-0.3-0.7-0.7V18c0-1.8-1.1-2.6-2.2-2.6S88.1,16,88.1,18v5.4
	c0,0.4-0.3,0.7-0.7,0.7h-1.9c-0.4,0-0.7-0.3-0.7-0.7v-10c0-0.4,0.3-0.7,0.7-0.7h2c0.4,0,0.7,0.3,0.7,0.7v1.2
	c0.6-1.6,2.3-2.3,3.4-2.3C94.7,12.6,96.3,14.6,96.3,18z"/>
<g>
	<path class="st0" d="M59.8,18.5c0-3.4-2.6-6-6-6s-6.1,2.6-6.1,6s2.6,6,6,6c0.2,0,0.3,0,0.5,0C57.1,24.3,59.7,21.8,59.8,18.5
		C59.8,18.6,59.8,18.6,59.8,18.5z M55.6,21L55.6,21C55.6,21.1,55.6,21.1,55.6,21c-0.6,0.5-1.2,0.6-2,0.6s-1.3-0.2-1.9-0.6l0,0l0,0
		c-0.8-0.6-1.2-1.5-1.2-2.5c0-1.8,1.4-3.2,3.2-3.2s3.2,1.4,3.2,3.2C56.9,19.5,56.5,20.4,55.6,21z"/>
</g>
<linearGradient id="SVGID_1_" gradientUnits="userSpaceOnUse" x1="4.7114" y1="5.7386" x2="27.0682" y2="28.0954" gradientTransform="matrix(1 0 0 -1 0 33)">
	<stop  offset="0" style="stop-color:#494949"/>
	<stop  offset="0.3345" style="stop-color:#7C7C7C"/>
	<stop  offset="0.733" style="stop-color:#AAAAAA"/>
	<stop  offset="1" style="stop-color:#AAAAAA"/>
</linearGradient>
<path class="st1" d="M15.9,31.9c-4.2,0-8.2-1.6-11.2-4.6s-4.6-7-4.6-11.2S1.7,7.9,4.7,4.9s7-4.6,11.2-4.6s8.2,1.6,11.2,4.6
	s4.6,7,4.6,11.2s-1.6,8.2-4.6,11.2S20.1,31.9,15.9,31.9z M15.9,2.2C8.3,2.2,2,8.5,2,16.1S8.3,30,15.9,30s13.9-6.3,13.9-13.9
	S23.5,2.2,15.9,2.2z M19,25.4c0-0.6-0.4-1-1-1h-4.2c-0.6,0-1,0.4-1,1s0.4,1,1,1H18C18.6,26.4,19,26,19,25.4z M17.6,23.8h-3.3
	c-0.8,0-1.5-0.7-1.5-1.5v-1.2c-2.1-1.3-3.2-3.7-2.7-6.2c0.4-2.3,2.3-4.2,4.6-4.7c1.8-0.4,3.6,0.1,5,1.2s2.2,2.8,2.2,4.6
	c0,2.1-1.1,4-2.8,5.1v1.2C19,23.1,18.4,23.8,17.6,23.8z M14.8,21.8H17v-0.9c0-0.6,0.3-1.1,0.8-1.4c1.3-0.7,2-2,2-3.4
	c0-1.2-0.5-2.3-1.5-3.1c-0.9-0.8-2.1-1.1-3.4-0.8c-1.5,0.3-2.7,1.6-3,3.1c-0.3,1.7,0.5,3.3,2,4.2c0.5,0.3,0.8,0.8,0.8,1.4L14.8,21.8
	L14.8,21.8z M25,16.9h-1c-0.6,0-1-0.4-1-1c0-0.6,0.4-1,1-1h1c0.6,0,1,0.4,1,1C26,16.4,25.6,16.9,25,16.9z M7.8,16.9h-1
	c-0.6,0-1-0.4-1-1c0-0.6,0.4-1,1-1h1c0.6,0,1,0.4,1,1C8.9,16.4,8.4,16.9,7.8,16.9z M21.6,11.1c-0.3,0-0.5-0.1-0.7-0.3
	c-0.4-0.4-0.4-1,0-1.4l0.7-0.7c0.4-0.4,1-0.4,1.4,0s0.4,1,0,1.4l-0.7,0.7C22.1,11,21.9,11.1,21.6,11.1z M10.2,11.1
	c-0.3,0-0.5-0.1-0.7-0.3l-0.7-0.7c-0.4-0.4-0.4-1,0-1.4s1-0.4,1.4,0l0.7,0.7c0.4,0.4,0.4,1,0,1.4C10.7,11,10.5,11.1,10.2,11.1z
	 M15.9,8.8c-0.6,0-1-0.4-1-1v-1c0-0.6,0.4-1,1-1c0.6,0,1,0.4,1,1v1C16.9,8.3,16.5,8.8,15.9,8.8z"/>
</svg>
